<svg width="147" height="152" viewBox="0 0 147 152" fill="none" xmlns="http://www.w3.org/2000/svg">
<path d="M51.7269 3.90747C53.0823 -1.67508 61.1937 -1.12436 61.7821 4.59016L65.3777 39.5059C65.7762 43.376 70.1793 45.4009 73.3769 43.1846L109.61 18.0706C114.151 14.9233 119.764 20.2155 116.89 24.9335L99.3354 53.7457C97.5337 56.7028 99.1306 60.558 102.496 61.375L142.418 71.0682C147.326 72.2599 147.718 79.0895 142.979 80.8352L101.746 96.0217C98.5758 97.1893 97.3891 101.056 99.3585 103.801L114.792 125.312C118.039 129.838 112.734 135.558 107.976 132.659L80.0233 115.628C77.0661 113.826 73.2109 115.423 72.3939 118.788L65.4577 147.355C64.1122 152.897 56.0769 152.41 55.4106 146.746L50.4567 104.638C49.9842 100.622 45.2568 98.7174 42.1322 101.285L15.0982 123.498C10.5435 127.24 4.31703 121.577 7.61213 116.689L32.8214 79.2933C35.1803 75.794 32.524 71.1049 28.3099 71.3291L5.39072 72.5486C-0.712864 72.8733 -2.13948 64.1534 3.74936 62.5161L23.282 57.0854C26.8773 56.0858 28.2255 51.6962 25.8112 48.8508L8.52845 28.4819C4.77227 24.055 10.1298 17.7863 15.0878 20.8071L37.4531 34.4335C40.4102 36.2352 44.2654 34.6383 45.0824 31.2733L51.7269 3.90747Z" fill="black"/>
</svg>
